<svg width="415" height="70" viewBox="0 0 415 70" fill="none" xmlns="http://www.w3.org/2000/svg">
<defs>
<linearGradient id="logoGradient" x1="0%" y1="0%" x2="100%" y2="100%">
<stop offset="0%" style="stop-color:#A855F7;stop-opacity:1" />
<stop offset="33%" style="stop-color:#EC4899;stop-opacity:1" />
<stop offset="66%" style="stop-color:#FBBF24;stop-opacity:1" />
<stop offset="100%" style="stop-color:#F97316;stop-opacity:1" />
</linearGradient>
<clipPath id="clip0_271_60973">
<rect width="415" height="70" fill="white"/>
</clipPath>
</defs>
<g clip-path="url(#clip0_271_60973)">
<path d="M88.0856 35.0007C88.0856 25.5268 95.1152 18.3643 104.708 18.3643C112.372 18.3643 118.348 23.1012 120.226 29.9463H113.197C111.687 26.6317 108.603 24.6124 104.657 24.6124C98.7315 24.6124 94.6838 28.9811 94.6838 35.0007C94.6838 41.0203 98.7315 45.3889 104.657 45.3889C108.603 45.3889 111.687 43.3697 113.197 40.0551H120.226C118.348 46.9002 112.372 51.6371 104.708 51.6371C95.1025 51.6371 88.0856 44.4619 88.0856 35.0007Z" fill="#F5F6F9"/>
<path d="M157.887 40.473V51.0899H151.276L151.327 40.5111L139.932 18.9092H147.33L154.588 33.12L161.846 18.9092H169.243L157.887 40.473Z" fill="#F5F6F9"/>
<path d="M188.441 35.0007C188.441 25.5268 195.471 18.3643 205.064 18.3643C212.728 18.3643 218.704 23.1012 220.582 29.9463H213.553C212.043 26.6317 208.959 24.6124 205.013 24.6124C199.087 24.6124 195.04 28.9811 195.04 35.0007C195.04 41.0203 199.087 45.3889 205.013 45.3889C208.959 45.3889 212.043 43.3697 213.553 40.0551H220.582C218.704 46.9002 212.728 51.6371 205.064 51.6371C195.471 51.6371 188.441 44.4619 188.441 35.0007Z" fill="#F5F6F9"/>
<path d="M264.536 44.8417V51.0899H244.196V18.9092H250.756V44.8417H264.536Z" fill="#F5F6F9"/>
<path d="M318.641 35.0007C318.641 44.4746 311.345 51.6371 301.879 51.6371C292.414 51.6371 285.168 44.4619 285.168 35.0007C285.168 25.5395 292.426 18.3643 301.879 18.3643C311.333 18.3643 318.641 25.5395 318.641 35.0007ZM291.779 35.0007C291.779 41.0203 296.093 45.3889 301.879 45.3889C307.665 45.3889 311.98 41.0203 311.98 35.0007C311.98 28.9811 307.665 24.6124 301.879 24.6124C296.093 24.6124 291.779 28.9684 291.779 35.0007Z" fill="#F5F6F9"/>
<path d="M367.506 29.7165C367.506 36.4727 362.963 40.7016 356.061 40.7016H349.132V51.0899H342.572V18.9092H356.073C362.963 18.9092 367.506 22.9603 367.506 29.7165ZM360.844 29.8054C360.844 26.948 359.195 25.1574 355.794 25.1574H349.132V34.4407H355.794C359.195 34.4407 360.844 32.5993 360.844 29.8054Z" fill="#F5F6F9"/>
<path d="M415 41.5664C415 49.0591 408.199 51.6371 402.781 51.6371C393.366 51.6371 389.508 46.3033 388.772 40.7409H395.383C396.259 43.9158 398.187 45.5286 402.73 45.5286C406.448 45.5286 408.376 44.1444 408.376 41.8458C408.376 39.5471 406.13 39.1407 400.471 37.8962C394.736 36.7024 389.584 34.8229 389.584 28.4731C389.584 21.7169 395.599 18.3643 401.702 18.3643C410.33 18.3643 413.921 22.9996 414.657 28.3461H407.996C407.311 26.0983 405.699 24.4854 401.753 24.4854C397.807 24.4854 396.195 26.1491 396.195 28.2064C396.195 30.086 397.807 30.5558 402.032 31.4702C410.622 33.3116 414.987 35.1912 414.987 41.5791" fill="#F5F6F9"/>
<path d="M37.3431 0V16.7634L55.5643 35L37.3431 53.2366V69.9873C55.6277 68.7935 70.0802 53.5795 70.0802 34.9873C70.0802 16.3951 55.6277 1.19376 37.3431 0Z" fill="url(#logoGradient)"/>
<path d="M0 35C0 53.5922 14.4525 68.8062 32.7371 70V53.2493L14.516 35.0127L32.7371 16.7761V0C14.4525 1.19376 0 16.4078 0 35Z" fill="url(#logoGradient)"/>
</g>
</svg>
